<svg width="155" height="25" viewBox="0 0 155 25" fill="none" xmlns="http://www.w3.org/2000/svg">
<path d="M152.729 8.15863C152.201 7.21746 151.34 6.39106 150.146 5.67944C148.976 4.94486 147.771 4.57757 146.531 4.57757C144.557 4.57757 143.57 5.22033 143.57 6.50584C143.57 7.03381 143.799 7.51588 144.258 7.95203C144.717 8.38819 145.923 9.03094 147.874 9.8803C149.756 10.7297 151.076 11.4757 151.834 12.1185C152.614 12.7612 153.222 13.4958 153.659 14.3222C154.118 15.1486 154.347 16.1242 154.347 17.249C154.347 19.4757 153.498 21.2203 151.799 22.4829C150.101 23.7454 147.862 24.3767 145.085 24.3767C142.376 24.3767 139.977 23.8143 137.888 22.6895V15.4241C139.495 18.6149 141.894 20.2103 145.085 20.2103C146.095 20.2103 146.921 20.0266 147.564 19.6594C148.207 19.2921 148.528 18.7756 148.528 18.1099C148.528 17.513 148.253 16.9736 147.702 16.4915C147.151 15.9865 146.095 15.3896 144.534 14.701C142.009 13.5991 140.287 12.5087 139.369 11.4298C138.451 10.3279 137.991 9.06538 137.991 7.64214C137.991 5.48432 138.795 3.75117 140.402 2.44271C142.009 1.13424 144.144 0.480011 146.806 0.480011C147.977 0.480011 149.09 0.629221 150.146 0.927642C151.202 1.20311 152.063 1.5704 152.729 2.02951V8.15863Z" fill="white"/>
<path d="M135.871 8.15863C135.343 7.21746 134.482 6.39106 133.289 5.67944C132.118 4.94486 130.913 4.57757 129.673 4.57757C127.699 4.57757 126.712 5.22033 126.712 6.50584C126.712 7.03381 126.942 7.51588 127.401 7.95203C127.86 8.38819 129.065 9.03094 131.016 9.8803C132.899 10.7297 134.218 11.4757 134.976 12.1185C135.756 12.7612 136.365 13.4958 136.801 14.3222C137.26 15.1486 137.49 16.1242 137.49 17.249C137.49 19.4757 136.64 21.2203 134.942 22.4829C133.243 23.7454 131.005 24.3767 128.227 24.3767C125.518 24.3767 123.119 23.8143 121.031 22.6895V15.4241C122.637 18.6149 125.036 20.2103 128.227 20.2103C129.237 20.2103 130.064 20.0266 130.706 19.6594C131.349 19.2921 131.67 18.7756 131.67 18.1099C131.67 17.513 131.395 16.9736 130.844 16.4915C130.293 15.9865 129.237 15.3896 127.676 14.701C125.151 13.5991 123.429 12.5087 122.511 11.4298C121.593 10.3279 121.134 9.06538 121.134 7.64214C121.134 5.48432 121.937 3.75117 123.544 2.44271C125.151 1.13424 127.286 0.480011 129.949 0.480011C131.119 0.480011 132.233 0.629221 133.289 0.927642C134.345 1.20311 135.206 1.5704 135.871 2.02951V8.15863Z" fill="white"/>
<path d="M119.923 23.8946H103.119C103.418 23.8487 103.739 23.6651 104.083 23.3437C104.428 22.9994 104.692 22.5058 104.875 21.8631C105.082 21.2203 105.185 20.3824 105.185 19.3494V5.09406C105.185 4.12993 105.048 3.36092 104.772 2.78703C104.52 2.19019 104.21 1.75403 103.842 1.47857C103.498 1.2031 103.119 1.03093 102.706 0.962067H119.647V8.05532C119.234 6.83868 118.672 5.98933 117.96 5.50726C117.271 5.02519 116.353 4.78416 115.205 4.78416H111.211V10.4312H114.827C116.319 10.4312 117.26 10.041 117.65 9.26049V15.4585C117.581 15.1141 117.283 14.8387 116.755 14.6321C116.25 14.4025 115.63 14.2877 114.895 14.2877H111.211V19.9692H115.619C116.996 19.9692 118.086 19.7167 118.89 19.2117C119.693 18.7067 120.451 17.8229 121.162 16.5603L119.923 23.8946Z" fill="white"/>
<path d="M102.556 23.8946H85.9246C86.4526 23.7799 86.8658 23.3207 87.1642 22.5173C87.4626 21.6909 87.6118 20.5776 87.6118 19.1773V5.16293C87.6118 2.7526 86.9806 1.35231 85.718 0.962067H95.3593C94.8314 1.05389 94.3837 1.44413 94.0164 2.1328C93.6491 2.82146 93.4655 3.83151 93.4655 5.16293V19.9692H98.6305C99.9619 19.9692 100.96 19.7971 101.626 19.4527C102.292 19.1084 102.958 18.3738 103.623 17.249L102.556 23.8946Z" fill="white"/>
<path d="M78.9686 19.6938C78.9686 20.9793 79.1523 21.9893 79.5196 22.7239C79.8868 23.4355 80.3345 23.8258 80.8625 23.8946H71.0145C71.5884 23.8028 72.0361 23.3896 72.3574 22.655C72.7018 21.8975 72.8739 20.9104 72.8739 19.6938V4.78416H68.8108C68.2369 4.78416 67.7434 4.89894 67.3302 5.12849C66.9399 5.33509 66.5956 5.62204 66.2972 5.98933C65.9987 6.35661 65.6429 7.04528 65.2297 8.05532H65.1953L65.8151 0.962067H86.0619L86.6472 8.05532C86.1422 6.74686 85.5339 5.87455 84.8223 5.43839C84.1107 5.00224 83.2384 4.78416 82.2054 4.78416H78.9686V19.6938Z" fill="white"/>
<path d="M64.0293 20.0725C64.0293 20.9219 64.1211 21.622 64.3047 22.173C64.4884 22.7239 64.7179 23.1371 64.9934 23.4126C65.2918 23.688 65.5903 23.8487 65.8887 23.8946H56.1096C56.6606 23.8028 57.1082 23.424 57.4525 22.7583C57.8198 22.0697 58.0035 21.1744 58.0035 20.0725V4.95633C58.0035 2.70669 57.3722 1.37527 56.1096 0.962067H65.9231C65.6476 1.00798 65.3607 1.16867 65.0623 1.44413C64.7868 1.7196 64.5458 2.15575 64.3392 2.7526C64.1326 3.32648 64.0293 4.06106 64.0293 4.95633V20.0725Z" fill="white"/>
<path d="M54.6619 19.6249C54.6619 20.589 54.7652 21.381 54.9718 22.0008C55.1784 22.5977 55.4309 23.0568 55.7294 23.3781C56.0507 23.6766 56.3606 23.8487 56.6591 23.8946H47.2243C47.5457 23.8258 47.8327 23.6421 48.0852 23.3437C48.3377 23.0453 48.5443 22.5977 48.705 22.0008C48.8886 21.404 48.9804 20.612 48.9804 19.6249V8.08976L41.5084 24.48L33.7609 8.08976V19.4527C33.7609 20.6694 33.956 21.6794 34.3463 22.4829C34.7595 23.2634 35.3449 23.734 36.1024 23.8946H27.0464C27.4367 23.8258 27.7925 23.6421 28.1139 23.3437C28.4582 23.0453 28.7451 22.5747 28.9747 21.9319C29.2043 21.2892 29.319 20.4513 29.319 19.4183V4.95633C29.319 2.63782 28.5041 1.3064 26.8743 0.962067H36.9288L42.3348 12.876L47.6375 0.962067H56.6591C56.3377 1.00798 56.0163 1.19162 55.6949 1.513C55.3736 1.81142 55.121 2.25905 54.9374 2.8559C54.7538 3.42979 54.6619 4.16436 54.6619 5.05963V19.6249Z" fill="white"/>
<path d="M25.6737 20.0725C25.6737 20.9219 25.7655 21.622 25.9492 22.173C26.1328 22.7239 26.3624 23.1371 26.6378 23.4126C26.9362 23.688 27.2347 23.8487 27.5331 23.8946H17.754C18.305 23.8028 18.7526 23.424 19.0969 22.7583C19.4642 22.0697 19.6479 21.1744 19.6479 20.0725V4.95633C19.6479 2.70669 19.0166 1.37527 17.754 0.962067H27.5675C27.2921 1.00798 27.0051 1.16867 26.7067 1.44413C26.4312 1.7196 26.1902 2.15575 25.9836 2.7526C25.777 3.32648 25.6737 4.06106 25.6737 4.95633V20.0725Z" fill="white"/>
<path d="M17.2596 23.8946H0.628354C1.15633 23.7799 1.56953 23.3207 1.86795 22.5173C2.16637 21.6909 2.31559 20.5776 2.31559 19.1773V5.16293C2.31559 2.7526 1.68431 1.35231 0.421753 0.962067H10.0631C9.5351 1.05389 9.08747 1.44413 8.72018 2.1328C8.35289 2.82146 8.16924 3.83151 8.16924 5.16293V19.9692H13.3342C14.6657 19.9692 15.6642 19.7971 16.3299 19.4527C16.9956 19.1084 17.6614 18.3738 18.3271 17.249L17.2596 23.8946Z" fill="white"/>
</svg>
